/* XPM */
static char * ground_1_xpm[] = {
"32 32 3 1",
" 	c #D4D29B",
".	c #78A46A",
"+	c #FFFFFF",
"                                ",
"                                ",
"                                ",
"                                ",
"                                ",
"                                ",
"                                ",
"                                ",
"        ..                      ",
"        ..                      ",
"                                ",
"                                ",
"                ....            ",
"                ....            ",
"              ..    ..          ",
"              ..    ..          ",
"                                ",
"                                ",
"                                ",
"                                ",
"                                ",
"                                ",
"                                ",
"                                ",
"          ..            ..      ",
"          ..            ..      ",
"        ..  ..                  ",
"        ..  ..                  ",
"                                ",
"                                ",
"                                ",
"                                "};
