/* XPM */
static char * idle_right3_xpm[] = {
"32 32 7 1",
" 	c None",
".	c #000000",
"+	c #000000",
"@	c #584422",
"#	c #78A46A",
"$	c #D4D29B",
"%	c #FFFFFF",
"          ++++++  ++++++++      ",
"          ++++++  ++++++++      ",
"          ++@@@@++++####@@++    ",
"          ++@@@@++++####@@++    ",
"  ++++++++@@@@@@@@@@++####++    ",
"  ++++++++@@@@@@@@@@++####++    ",
"  ++@@@@##@@@@@@++@@##@@##++    ",
"  ++@@@@##@@@@@@++@@##@@##++    ",
"    ++@@######@@@@######++++    ",
"    ++@@######@@@@######++++    ",
"      ++++@@@@++@@##@@++@@++    ",
"      ++++@@@@++@@##@@++@@++    ",
"      ++@@##++$$++@@@@++$$++    ",
"      ++@@##++$$++@@@@++$$++    ",
"      ++@@@@++$$$$@@$$++$$++    ",
"      ++@@@@++$$$$@@$$++$$++    ",
"      ++++++@@++++$$$$$$$$++    ",
"      ++++++@@++++$$$$$$$$++    ",
"          ++++@@@@$$$$$$@@++    ",
"          ++++@@@@$$$$$$@@++    ",
"            ++++++@@++++++      ",
"            ++++++@@++++++      ",
"          ++@@$$##$$@@++        ",
"          ++@@$$##$$@@++        ",
"          ++$$$$@@$$@@++        ",
"          ++$$$$@@$$@@++        ",
"          ++$$@@@@@@++          ",
"          ++$$@@@@@@++          ",
"            ++++$$$$++          ",
"            ++++$$$$++          ",
"              ++++++++          ",
"              ++++++++          "};
