/* XPM */
static char * run_left3_xpm[] = {
"32 32 5 1",
" 	c None",
".	c #000000",
"+	c #78A46A",
"@	c #584422",
"#	c #D4D29B",
"    ......        ..            ",
"    ......        ..            ",
"    ..++..    ....@@..          ",
"    ..++..    ....@@..          ",
"  ..@@++@@....@@@@@@........    ",
"  ..@@++@@....@@@@@@........    ",
"  ..++++@@....@@@@@@@@@@@@..    ",
"  ..++++@@....@@@@@@@@@@@@..    ",
"  ..++@@++++@@..@@@@++++@@..    ",
"  ..++@@++++@@..@@@@++++@@..    ",
"    ....@@++++++@@++++@@..      ",
"    ....@@++++++@@++++@@..      ",
"    ..@@@@@@++@@....@@....      ",
"    ..@@@@@@++@@....@@....      ",
"    ..##..@@....##..++@@..      ",
"    ..##..@@....##..++@@..      ",
"    ..##..####@@##..@@....      ",
"    ..##..####@@##..@@....      ",
"    ..##++####@@..@@..          ",
"    ..##++####@@..@@..          ",
"    ..@@######@@@@@@..          ",
"    ..@@######@@@@@@..          ",
"      ....@@..........          ",
"      ....@@..........          ",
"    ..####..####@@..            ",
"    ..####..####@@..            ",
"    ..########@@..##..          ",
"    ..########@@..##..          ",
"      ..........##@@..          ",
"      ..........##@@..          ",
"        ....  ......            ",
"        ....  ......            "};
