/* XPM */
static char * run_right5_xpm[] = {
"32 32 5 1",
" 	c None",
".	c #000000",
"+	c #584422",
"@	c #78A46A",
"#	c #D4D29B",
"                                ",
"                                ",
"          ......    ........    ",
"          ......    ........    ",
"          ..++++......@@@@..    ",
"          ..++++......@@@@..    ",
"  ........++++++++....@@@@++..  ",
"  ........++++++++....@@@@++..  ",
"  ..++++++++++++..++++++@@..    ",
"  ..++++++++++++..++++++@@..    ",
"    ..++@@@@@@++++++@@++....    ",
"    ..++@@@@@@++++++@@++....    ",
"      ....++@@..++@@@@++++..    ",
"      ....++@@..++@@@@++++..    ",
"      ..++@@..##..@@++..##..    ",
"      ..++@@..##..@@++..##..    ",
"      ..++++..####++##..##..    ",
"      ..++++..####++##..##..    ",
"      ......++..++####++##..    ",
"      ......++..++####++##..    ",
"          ..++++++########..    ",
"          ..++++++########..    ",
"            ......++......      ",
"            ......++......      ",
"          ....@@##..####..      ",
"          ....@@##..####..      ",
"          ..##++########..      ",
"          ..##++########..      ",
"          ..##..........        ",
"          ..##..........        ",
"          ....    ......        ",
"          ....    ......        "};
