/* XPM */
static char *tile0091718823637[] = {
/* columns rows colors chars-per-pixel */
"32 32 5 1 ",
"  c None",
". c black",
"X c #584422",
"o c #78A46A",
"O c #D4D29B",
/* pixels */
"            ..        ......    ",
"            ..        ......    ",
"          ..XX....    ..oo..    ",
"          ..XX....    ..oo..    ",
"    ........XXXXXX....XXooXX..  ",
"    ........XXXXXX....XXooXX..  ",
"    ..XXXXXXXXXXXX....XXoooo..  ",
"    ..XXXXXXXXXXXX....XXoooo..  ",
"    ..XXooooXXXX..XXooooXXoo..  ",
"    ..XXooooXXXX..XXooooXXoo..  ",
"      ..XXooooXXooooooXX....    ",
"      ..XXooooXXooooooXX....    ",
"      ....XX....XXooXXXXXX..    ",
"      ....XX....XXooXXXXXX..    ",
"      ..XXoo..OO....XX..OO..    ",
"      ..XXoo..OO....XX..OO..    ",
"      ....XX..OOXXOOOO..OO..    ",
"      ....XX..OOXXOOOO..OO..    ",
"          ..XX..XXOOOOooOO..    ",
"          ..XX..XXOOOOooOO..    ",
"          ..XXXXXXOOOOOOXX..    ",
"          ..XXXXXXOOOOOOXX..    ",
"          ..........XX....      ",
"          ..........XX....      ",
"            ..XXOOOO..OOOO..    ",
"            ..XXOOOO..OOOO..    ",
"          ..OO..XXOOOOOOOO..    ",
"          ..OO..XXOOOOOOOO..    ",
"          ..XXOO..........      ",
"          ..XXOO..........      ",
"            ......  ....        ",
"            ......  ....        "
};
