/* XPM */
static char *tile0071718823638[] = {
/* columns rows colors chars-per-pixel */
"32 32 5 1 ",
"  c None",
". c black",
"X c #584422",
"o c #78A46A",
"O c #D4D29B",
/* pixels */
"                                ",
"                                ",
"          ......    ........    ",
"          ......    ........    ",
"          ..XXXX......oooo..    ",
"          ..XXXX......oooo..    ",
"  ........XXXXXXXX....ooooXX..  ",
"  ........XXXXXXXX....ooooXX..  ",
"  ..XXXXXXXXXXXX..XXooXXoo..    ",
"  ..XXXXXXXXXXXX..XXooXXoo..    ",
"    ..XXooooooXXXXooooXX....    ",
"    ..XXooooooXXXXooooXX....    ",
"      ....XXoo..XXooooXXXX..    ",
"      ....XXoo..XXooooXXXX..    ",
"      ..XXoo..OO..ooXX..OO..    ",
"      ..XXoo..OO..ooXX..OO..    ",
"      ..XXXX..OOOOXXOO..OO..    ",
"      ..XXXX..OOOOXXOO..OO..    ",
"      ......XX..XXOOOOXXOO..    ",
"      ......XX..XXOOOOXXOO..    ",
"          ..XXXXXXOOOOOOOO..    ",
"          ..XXXXXXOOOOOOOO..    ",
"        ..XX......XX......      ",
"        ..XX......XX......      ",
"      ..OOXXOOOOOOooXX..        ",
"      ..OOXXOOOOOOooXX..        ",
"      ..OOOOXXOOXXXX....        ",
"      ..OOOOXXOOXXXX....        ",
"      ..........XXOOOO..        ",
"      ..........XXOOOO..        ",
"              ..........        ",
"              ..........        "
};
