/* XPM */
static char *tile0101718823637[] = {
/* columns rows colors chars-per-pixel */
"32 32 5 1 ",
"  c None",
". c black",
"X c #584422",
"o c #78A46A",
"O c #D4D29B",
/* pixels */
"                                ",
"                                ",
"          ......    ........    ",
"          ......    ........    ",
"          ..XXXX......oooo..    ",
"          ..XXXX......oooo..    ",
"  ........XXXXXXXX....ooooXX..  ",
"  ........XXXXXXXX....ooooXX..  ",
"  ..XXXXXXXXXXXX..XXXXXXoo..    ",
"  ..XXXXXXXXXXXX..XXXXXXoo..    ",
"    ..XXooooooXXXXXXooXX....    ",
"    ..XXooooooXXXXXXooXX....    ",
"      ....XXoo..XXooooXXXX..    ",
"      ....XXoo..XXooooXXXX..    ",
"      ..XXoo..OO..ooXX..OO..    ",
"      ..XXoo..OO..ooXX..OO..    ",
"      ..XXXX..OOOOXXOO..OO..    ",
"      ..XXXX..OOOOXXOO..OO..    ",
"      ......XX..XXOOOOXXOO..    ",
"      ......XX..XXOOOOXXOO..    ",
"          ..XXXXXXOOOOOOOO..    ",
"          ..XXXXXXOOOOOOOO..    ",
"            ......XX......      ",
"            ......XX......      ",
"          ....ooOO..OOOO..      ",
"          ....ooOO..OOOO..      ",
"          ..OOXXOOOOOOOO..      ",
"          ..OOXXOOOOOOOO..      ",
"          ..OO..........        ",
"          ..OO..........        ",
"          ....    ......        ",
"          ....    ......        "
};
