/* XPM */
static char *tile0081718823638[] = {
/* columns rows colors chars-per-pixel */
"32 32 5 1 ",
"  c None",
". c black",
"X c #584422",
"o c #78A46A",
"O c #D4D29B",
/* pixels */
"        ......    ........      ",
"        ......    ........      ",
"        ..XXXX......ooooXX..    ",
"        ..XXXX......ooooXX..    ",
"      ....XXXXXXXXXX..oooo..    ",
"      ....XXXXXXXXXX..oooo..    ",
"  ....XXXXXXXXXX..XXXXXXoo..    ",
"  ....XXXXXXXXXX..XXXXXXoo..    ",
"  ..XXXXooooooXXXXXXoooo....    ",
"  ..XXXXooooooXXXXXXoooo....    ",
"    ......XXoo..XXooooXXXX..    ",
"    ......XXoo..XXooooXXXX..    ",
"        ..oo..OO..ooXX..OO..    ",
"        ..oo..OO..ooXX..OO..    ",
"      ..XXXX..OOOOXXOO..OO..    ",
"      ..XXXX..OOOOXXOO..OO..    ",
"      ..XX..XX..XXOOOOXXOO..    ",
"      ..XX..XX..XXOOOOXXOO..    ",
"      ......XXXXXXOOOOOOOO..    ",
"      ......XXXXXXOOOOOOOO..    ",
"            ......XXXX....      ",
"            ......XXXX....      ",
"            ..OOOOOOoo..        ",
"            ..OOOOOOoo..        ",
"          ..OOOOXXOOXX..        ",
"          ..OOOOXXOOXX..        ",
"          ..OOOOXXXX..          ",
"          ..OOOOXXXX..          ",
"            ....OOOO..          ",
"            ....OOOO..          ",
"              ........          ",
"              ........          "
};
