/* XPM */
static char *image__1__scaled_2x_pngcrushed1718792582[] = {
/* columns rows colors chars-per-pixel */
"128 96 5 1 ",
"  c None",
". c black",
"X c #584422",
"o c #78A46A",
"O c #D4D29B",
/* pixels */
"  ............                    ..............                  ..............                  ..............                ",
"  ............                    ..............                  ..............                  ..............                ",
"..XXoooooooooo..............    ..XXooooooooooXX............    ..XXooooooooooXX............    ..XXooooooooooXX............    ",
"..XXoooooooooo..............    ..XXooooooooooXX............    ..XXooooooooooXX............    ..XXooooooooooXX............    ",
"  ..XXooooooooooXXooooXX..        ..XXooooooooooXXoooooo..        ..XXooooooooooXXoooooo..        ..XXooooooooooXXoooooo..      ",
"  ..XXooooooooooXXooooXX..        ..XXooooooooooXXoooooo..        ..XXooooooooooXXoooooo..        ..XXooooooooooXXoooooo..      ",
"    ......XXooXX..XXooooXX..        ......XXooXX..XXXXooXX..        ......XXooXX..XXXXooXX..        ......XXooXX..XXXXooXX..    ",
"    ......XXooXX..XXooooXX..        ......XXooXX..XXXXooXX..        ......XXooXX..XXXXooXX..        ......XXooXX..XXXXooXX..    ",
"  ....XXXXooXX....oooo..XXXX..    ..XXXXXXooXX....oooo..XXXX..    ..XXXXXXooXX....oooo..XXXX..    ..XXXXXXooXX....oooo..XXXX..  ",
"  ....XXXXooXX....oooo..XXXX..    ..XXXXXXooXX....oooo..XXXX..    ..XXXXXXooXX....oooo..XXXX..    ..XXXXXXooXX....oooo..XXXX..  ",
"  ..XXXXXXXX..XXOO..XX..XXXXXX..  ..XXXXXXXX..XXOO..XX..XXXXXX..  ..XXXXXXXX..XXOO..XX..XXXXXX..  ..XXXXXXXX..XXOO..XX..XXXXXX..",
"  ..XXXXXXXX..XXOO..XX..XXXXXX..  ..XXXXXXXX..XXOO..XX..XXXXXX..  ..XXXXXXXX..XXOO..XX..XXXXXX..  ..XXXXXXXX..XXOO..XX..XXXXXX..",
"    ..XXOO..XXOOOOOO..OOXX......    ..XXOO..OOOOOOOO..OOXX......    ..XXOO..OOOOOOOO..OOXX......    ..XXOO..XXOOOOOO..OOXX......",
"    ..XXOO..XXOOOOOO..OOXX......    ..XXOO..OOOOOOOO..OOXX......    ..XXOO..OOOOOOOO..OOXX......    ..XXOO..XXOOOOOO..OOXX......",
"    ..XXOO..OOOOOOOO..OOXX..        ....OO..OOOOOOOO..OO..            ..OO..OOOOOOOO..OO..            ..OO..OOOOOOOO..OO....    ",
"    ..XXOO..OOOOOOOO..OOXX..        ....OO..OOOOOOOO..OO..            ..OO..OOOOOOOO..OO..            ..OO..OOOOOOOO..OO....    ",
"      ..OOXXOOXXXXOOXXOO..            ..OOXXOOXXXXOOXXOO..            ..OOXXOOXXXXOOXXOO..            ..OOXXOOXXXXOOXXOO..      ",
"      ..OOXXOOXXXXOOXXOO..            ..OOXXOOXXXXOOXXOO..            ..OOXXOOXXXXOOXXOO..            ..OOXXOOXXXXOOXXOO..      ",
"      ..XXOOOOOOOOOOOOXX..            ..XXOOOOOOOOOOOOXX..            ..XXOOOOOOOOOOOOXX..            ..XXOOOOOOOOOOOOXX..      ",
"      ..XXOOOOOOOOOOOOXX..            ..XXOOOOOOOOOOOOXX..            ..XXOOOOOOOOOOOOXX..            ..XXOOOOOOOOOOOOXX..      ",
"        ....XXXXXXXX....                ....XXXXXXXX....                ....XXXXXXXX....                ....XXXXXXXX....        ",
"        ....XXXXXXXX....                ....XXXXXXXX....                ....XXXXXXXX....                ....XXXXXXXX....        ",
"        ..OOOOOOOOOOOO..              ..XXOOOOOOOOOOOOXX..            ..XXooOOOOOOOOooXX..            ..XXOOOOOOOOOOOOXX..      ",
"        ..OOOOOOOOOOOO..              ..XXOOOOOOOOOOOOXX..            ..XXooOOOOOOOOooXX..            ..XXOOOOOOOOOOOOXX..      ",
"      ..OOooOOOOOOOOooOO..            ..OOXXOOOOOOOOXXOO..            ..OOXXOOOOOOOOXXOO..            ..OOXXOOOOOOOOXXOO..      ",
"      ..OOooOOOOOOOOooOO..            ..OOXXOOOOOOOOXXOO..            ..OOXXOOOOOOOOXXOO..            ..OOXXOOOOOOOOXXOO..      ",
"      ..OOXXXXooooXXXXOO..            ..OOXXXXXXXXXXXXOO..            ..XXXXXXXXXXXXXXXX..            ..OOXXXXXXXXXXXXOO..      ",
"      ..OOXXXXooooXXXXOO..            ..OOXXXXXXXXXXXXOO..            ..XXXXXXXXXXXXXXXX..            ..OOXXXXXXXXXXXXOO..      ",
"        ....OO....OO....                ....OO....OO....                ....OO....OO....                ....OO....OO....        ",
"        ....OO....OO....                ....OO....OO....                ....OO....OO....                ....OO....OO....        ",
"          ....    ....                    ....    ....                    ....    ....                    ....    ....          ",
"          ....    ....                    ....    ....                    ....    ....                    ....    ....          ",
"          ......  ........                ......  ........                ......  ........                ......  ........      ",
"          ......  ........                ......  ........                ......  ........                ......  ........      ",
"          ..XXXX....ooooXX..              ..XXXX....ooooXX..              ..XXXX....ooooXX..              ..XXXX....ooooXX..    ",
"          ..XXXX....ooooXX..              ..XXXX....ooooXX..              ..XXXX....ooooXX..              ..XXXX....ooooXX..    ",
"  ........XXXXXXXXXX..oooo..      ........XXXXXXXXXX..oooo..      ........XXXXXXXXXX..oooo..      ........XXXXXXXXXX..oooo..    ",
"  ........XXXXXXXXXX..oooo..      ........XXXXXXXXXX..oooo..      ........XXXXXXXXXX..oooo..      ........XXXXXXXXXX..oooo..    ",
"  ..XXXXXXXXXXXX..XXXXXXoo..      ..XXXXXXXXXXXX..XXXXXXoo..      ..XXXXooXXXXXX..XXooXXoo..      ..XXXXooXXXXXX..XXXXXXoo..    ",
"  ..XXXXXXXXXXXX..XXXXXXoo..      ..XXXXXXXXXXXX..XXXXXXoo..      ..XXXXooXXXXXX..XXooXXoo..      ..XXXXooXXXXXX..XXXXXXoo..    ",
"    ..XXooooooXXXXXXoooo....        ..XXooooooXXXXoooooo....        ..XXooooooXXXXoooooo....        ..XXooooooXXXXoooooo....    ",
"    ..XXooooooXXXXXXoooo....        ..XXooooooXXXXoooooo....        ..XXooooooXXXXoooooo....        ..XXooooooXXXXoooooo....    ",
"      ....XXoo..XXooooXXXX..          ....XXoo..XXooooXXXX..          ....XXXX..XXooXX..XX..          ....XXXX..XXoooo..XX..    ",
"      ....XXoo..XXooooXXXX..          ....XXoo..XXooooXXXX..          ....XXXX..XXooXX..XX..          ....XXXX..XXoooo..XX..    ",
"      ..XXoo..OO..ooXX..OO..          ..XXoo..OO..ooXX..OO..          ..XXoo..OO..XXXX..OO..          ..XXoo..OO..XXXX..OO..    ",
"      ..XXoo..OO..ooXX..OO..          ..XXoo..OO..ooXX..OO..          ..XXoo..OO..XXXX..OO..          ..XXoo..OO..XXXX..OO..    ",
"      ..XXXX..OOOOXXOO..OO..          ..XXXX..OOOOXXOO..OO..          ..XXXX..OOOOXXOO..OO..          ..XXXX..OOOOXXOO..OO..    ",
"      ..XXXX..OOOOXXOO..OO..          ..XXXX..OOOOXXOO..OO..          ..XXXX..OOOOXXOO..OO..          ..XXXX..OOOOXXOO..OO..    ",
"      ......XX..XXOOOOXXOO..          ......XX..XXOOOOXXOO..          ......XX....OOOOOOOO..          ......XX....OOOOOOOO..    ",
"      ......XX..XXOOOOXXOO..          ......XX..XXOOOOXXOO..          ......XX....OOOOOOOO..          ......XX....OOOOOOOO..    ",
"          ..XXXXXXOOOOOOOO..              ..XXXXXXOOOOOOOO..              ....XXXXOOOOOOXX..              ....XXXXOOOOOOXX..    ",
"          ..XXXXXXOOOOOOOO..              ..XXXXXXOOOOOOOO..              ....XXXXOOOOOOXX..              ....XXXXOOOOOOXX..    ",
"            ......XXXX....                  ......XXXX....                  ......XX......                  ......XXXX....      ",
"            ......XXXX....                  ......XXXX....                  ......XX......                  ......XXXX....      ",
"            ..OOOOOOoo..                    ..OOOOOOoo..                  ..XXOOooOOXX..                  ....OOOOOOXX..        ",
"            ..OOOOOOoo..                    ..OOOOOOoo..                  ..XXOOooOOXX..                  ....OOOOOOXX..        ",
"          ..OOOOXXOOXX..                  ..OOOOXXOOXX..                  ..OOOOXXOOXX..                  ..OOOOXXOOXX..        ",
"          ..OOOOXXOOXX..                  ..OOOOXXOOXX..                  ..OOOOXXOOXX..                  ..OOOOXXOOXX..        ",
"          ..OOOOXXXX..                    ..OOOOXXXX..                    ..OOXXXXXX..                    ..OOOOXXXX..          ",
"          ..OOOOXXXX..                    ..OOOOXXXX..                    ..OOXXXXXX..                    ..OOOOXXXX..          ",
"            ....OOOO..                      ....OOOO..                      ....OOOO..                      ....OOOO..          ",
"            ....OOOO..                      ....OOOO..                      ....OOOO..                      ....OOOO..          ",
"              ........                        ........                        ........                        ........          ",
"              ........                        ........                        ........                        ........          ",
"                  ............                    ..........                        ........                        ........    ",
"                  ............                    ..........                        ........                        ........    ",
"    ..............XXXXXXXXXX..      ..............XXXXXXXXXX..        ..............XXXXXX..          ..............XXXXXX..    ",
"    ..............XXXXXXXXXX..      ..............XXXXXXXXXX..        ..............XXXXXX..          ..............XXXXXX..    ",
"    ..ooooooooXXXXXXXXXXXX..        ..XXooooooXXXXXXXXXXXX..        ..XXooooXXXXXXXXXXXXXX..        ..ooooooXXXXXXXXXXXXXX..    ",
"    ..ooooooooXXXXXXXXXXXX..        ..XXooooooXXXXXXXXXXXX..        ..XXooooXXXXXXXXXXXXXX..        ..ooooooXXXXXXXXXXXXXX..    ",
"    ....XXXXooooXXooXXXX....        ....XXXXooooXXooXXXX....        ..XXXXXXooooXXXXXXXX..          ..XXXXXXooooXXooXXXX..      ",
"    ....XXXXooooXXooXXXX....        ....XXXXooooXXooXXXX....        ..XXXXXXooooXXXXXXXX..          ..XXXXXXooooXXooXXXX..      ",
"  ..XXooXXooooXXooooooXXXX....    ..XXooXXooooXXooooooXXXX....      ..XXXXooooXXooooooXXXX..      ....ooXXooooXXooooooXXXX....  ",
"  ..XXooXXooooXXooooooXXXX....    ..XXooXXooooXXooooooXXXX....      ..XXXXooooXXooooooXXXX..      ....ooXXooooXXooooooXXXX....  ",
"..XXXXXXXXooooooXXooooXXXXXX..  ..XXXXXXXXooooooXXooooXXXXXX..    ..XXooXXooooooXXooooXXXXXX..    ..XXooXXooooooXXooooXXXXXX..  ",
"..XXXXXXXXooooooXXooooXXXXXX..  ..XXXXXXXXooooooXXooooXXXXXX..    ..XXooXXooooooXXooooXXXXXX..    ..XXooXXooooooXXooooXXXXXX..  ",
"......XXXXooooXXooooooXXXX..    ....XXXXXXooooXXooooooXXXX..    ..XXXXXXXXooooXXooooooXXXX....  ..XXXXXXXXooooXXooooooXXXX....  ",
"......XXXXooooXXooooooXXXX..    ....XXXXXXooooXXooooooXXXX..    ..XXXXXXXXooooXXooooooXXXX....  ..XXXXXXXXooooXXooooooXXXX....  ",
"      ..XXXXooooXXooXXXX..          ....XXXXooooXXooooXX..        ....XXXXooooooXXooooXX..        ......XXooooooXXooXXXX..      ",
"      ..XXXXooooXXooXXXX..          ....XXXXooooXXooooXX..        ....XXXXooooooXXooooXX..        ......XXooooooXXooXXXX..      ",
"      ..XXXXXXXXXXXXXXXX..            ..XXXXXXXXXXXXXXXX..            ..XXXXXXXXXXXXXXXX..            ..XXXXXXXXXXXXXXXX..      ",
"      ..XXXXXXXXXXXXXXXX..            ..XXXXXXXXXXXXXXXX..            ..XXXXXXXXXXXXXXXX..            ..XXXXXXXXXXXXXXXX..      ",
"      ....XX........XX....            ....XX........XX....            ....XXXX....XXXX....            ....XX......XXXX....      ",
"      ....XX........XX....            ....XX........XX....            ....XXXX....XXXX....            ....XX......XXXX....      ",
"        ....XXOOOOXX....                ......OOOOXX....                ......OOOO......                ....XXOOOO......        ",
"        ....XXOOOOXX....                ......OOOOXX....                ......OOOO......                ....XXOOOO......        ",
"        ..ooOOOOXXOOoo..              ....OOOOOOooOOOO....            ..OOooOOOOOOOOooOO..            ..XXXXOOOOooOOXXXX..      ",
"        ..ooOOOOXXOOoo..              ....OOOOOOooOOOO....            ..OOooOOOOOOOOooOO..            ..XXXXOOOOooOOXXXX..      ",
"      ..OOXXOOOOOOOOXXOO..            ..OOXXOOOOOOOOXXOO..            ..OOXXOOOOOOOOXXOO..            ..OOXXOOOOOOOOXXOO..      ",
"      ..OOXXOOOOOOOOXXOO..            ..OOXXOOOOOOOOXXOO..            ..OOXXOOOOOOOOXXOO..            ..OOXXOOOOOOOOXXOO..      ",
"      ..OOXXXXXXXXXXXXOO..            ..OOXXXXXXXXXXXXOO..            ..XX..XXXXXXXX..XX..            ..OO..XXXXXXXX..OO..      ",
"      ..OOXXXXXXXXXXXXOO..            ..OOXXXXXXXXXXXXOO..            ..XX..XXXXXXXX..XX..            ..OO..XXXXXXXX..OO..      ",
"        ....OO....OO....                ....OO....OO....                ....OO....OO....                ....OO....OO....        ",
"        ....OO....OO....                ....OO....OO....                ....OO....OO....                ....OO....OO....        ",
"          ....    ....                    ....    ....                    ....    ....                    ....    ....          ",
"          ....    ....                    ....    ....                    ....    ....                    ....    ....          "
};
