/* XPM */
static char * bomb1_xpm[] = {
"32 32 5 1",
" 	c None",
".	c #584422",
"+	c #D4D29B",
"@	c #5E8549",
"#	c #78A46A",
"                                ",
"                                ",
"                                ",
"                                ",
"                                ",
"                                ",
"            ..                  ",
"            ..                  ",
"              ..                ",
"              ..                ",
"            ......              ",
"            ......              ",
"          ..++..++..            ",
"          ..++..++..            ",
"        ....++++++....          ",
"        ....++++++....          ",
"      ..++++......@@##..        ",
"      ..++++......@@##..        ",
"      ..####@@@@@@####..        ",
"      ..####@@@@@@####..        ",
"      ..++##########@@..        ",
"      ..++##########@@..        ",
"      ..############@@..        ",
"      ..############@@..        ",
"      ..@@########@@@@..        ",
"      ..@@########@@@@..        ",
"        ..@@@@@@@@@@..          ",
"        ..@@@@@@@@@@..          ",
"          ..........            ",
"          ..........            ",
"                                ",
"                                "};
