/* XPM */
static char * heart4_xpm[] = {
"32 32 7 1",
" 	c None",
".	c #000000",
"+	c #584422",
"@	c #5E8549",
"#	c #D4D29B",
"$	c #78A46A",
"%	c #FFFFFF",
"                                ",
"                                ",
"                                ",
"                                ",
"                                ",
"                                ",
"                                ",
"                                ",
"          ++++  @@@@            ",
"          ++++  @@@@            ",
"        ++####@@####@@          ",
"        ++####@@####@@          ",
"        ++##$$$$$$##@@          ",
"        ++##$$$$$$##@@          ",
"        ++$$$$$$@@@@++          ",
"        ++$$$$$$@@@@++          ",
"          ++@@@@@@++            ",
"          ++@@@@@@++            ",
"            ++++++              ",
"            ++++++              ",
"                                ",
"                                ",
"                                ",
"                                ",
"                                ",
"                                ",
"                                ",
"                                ",
"                                ",
"                                ",
"                                ",
"                                "};
