/* XPM */
static char * heart3_xpm[] = {
"32 32 7 1",
" 	c None",
".	c #000000",
"+	c #5E8549",
"@	c #584422",
"#	c #D4D29B",
"$	c #78A46A",
"%	c #FFFFFF",
"                                ",
"                                ",
"                                ",
"                                ",
"                                ",
"                                ",
"          ++++  @@@@            ",
"          ++++  @@@@            ",
"        ++####@@$$++@@          ",
"        ++####@@$$++@@          ",
"        @@######$$++@@          ",
"        @@######$$++@@          ",
"        @@$$$$######@@          ",
"        @@$$$$######@@          ",
"          @@++++##++            ",
"          @@++++##++            ",
"            @@@@++              ",
"            @@@@++              ",
"                                ",
"                                ",
"                                ",
"                                ",
"                                ",
"                                ",
"                                ",
"                                ",
"                                ",
"                                ",
"                                ",
"                                ",
"                                ",
"                                "};
