/* XPM */
static char * key1_xpm[] = {
"32 32 4 1",
" 	c None",
".	c #584422",
"+	c #78A46A",
"@	c #5E8549",
"                                ",
"                                ",
"                                ",
"                                ",
"                                ",
"                                ",
"                                ",
"                                ",
"                                ",
"                                ",
"                  ........      ",
"                  ........      ",
"                ..++++++++..    ",
"                ..++++++++..    ",
"    ..............++....@@..    ",
"    ..............++....@@..    ",
"    ..++++++++++++++....++..    ",
"    ..++++++++++++++....++..    ",
"    ..++..++......++....@@..    ",
"    ..++..++......++....@@..    ",
"    ..........  ..++@@@@@@..    ",
"    ..........  ..++@@@@@@..    ",
"                  ........      ",
"                  ........      ",
"                                ",
"                                ",
"                                ",
"                                ",
"                                ",
"                                ",
"                                ",
"                                "};
