/* XPM */
static char * key2_xpm[] = {
"32 32 5 1",
" 	c None",
".	c #584422",
"+	c #78A46A",
"@	c #5E8549",
"#	c #D4D29B",
"                                ",
"                                ",
"                                ",
"                                ",
"                                ",
"                                ",
"                                ",
"                                ",
"                  ........      ",
"                  ........      ",
"                ..++++++++..    ",
"                ..++++++++..    ",
"    @@@@@@@@......++....@@..    ",
"    @@@@@@@@......++....@@..    ",
"    @@########++++++....++..    ",
"    @@########++++++....++..    ",
"    @@##@@##@@@@..++....@@..    ",
"    @@##@@##@@@@..++....@@..    ",
"    ..@@..@@..  ..##@@@@@@..    ",
"    ..@@..@@..  ..##@@@@@@..    ",
"                  @@......      ",
"                  @@......      ",
"                                ",
"                                ",
"                                ",
"                                ",
"                                ",
"                                ",
"                                ",
"                                ",
"                                ",
"                                "};
