/* XPM */
static char * key3_xpm[] = {
"32 32 5 1",
" 	c None",
".	c #5E8549",
"+	c #584422",
"@	c #D4D29B",
"#	c #78A46A",
"                                ",
"                                ",
"                                ",
"                                ",
"                                ",
"                                ",
"                  ..++++++      ",
"                  ..++++++      ",
"                ..@@@@####++    ",
"                ..@@@@####++    ",
"    ++++++++......@@......++    ",
"    ++++++++......@@......++    ",
"    ++######@@@@@@##..++##++    ",
"    ++######@@@@@@##..++##++    ",
"    ++##++##++++++##..++@@..    ",
"    ++##++##++++++##..++@@..    ",
"    ++++++++++  ++##@@@@@@..    ",
"    ++++++++++  ++##@@@@@@..    ",
"                  ++......      ",
"                  ++......      ",
"                                ",
"                                ",
"                                ",
"                                ",
"                                ",
"                                ",
"                                ",
"                                ",
"                                ",
"                                ",
"                                ",
"                                "};
