/* XPM */
static char * key4_xpm[] = {
"32 32 5 1",
" 	c None",
".	c #5E8549",
"+	c #584422",
"@	c #78A46A",
"#	c #D4D29B",
"                                ",
"                                ",
"                                ",
"                                ",
"                                ",
"                                ",
"                                ",
"                                ",
"                  ........      ",
"                  ........      ",
"                ++@@######..    ",
"                ++@@######..    ",
"    ++++++++++++++@@++++##..    ",
"    ++++++++++++++@@++++##..    ",
"    ++@@@@@@@@@@@@@@++++##..    ",
"    ++@@@@@@@@@@@@@@++++##..    ",
"    ++@@++@@++++++@@++++....    ",
"    ++@@++@@++++++@@++++....    ",
"    ++++++++++  ++@@....@@++    ",
"    ++++++++++  ++@@....@@++    ",
"                  ++++++++      ",
"                  ++++++++      ",
"                                ",
"                                ",
"                                ",
"                                ",
"                                ",
"                                ",
"                                ",
"                                ",
"                                ",
"                                "};
