/* XPM */
static char * wall_right_xpm[] = {
"32 32 5 1",
" 	c #5E8549",
".	c #584422",
"+	c #78A46A",
"@	c #D4D29B",
"#	c #FFFFFF",
"  ..  ..++++++@@++@@@@@@++......",
"  ..  ..++++++@@++@@@@@@++......",
"..    ++      ++++@@@@@@++......",
"..    ++      ++++@@@@@@++......",
"..    ++  ++@@  ++@@@@++++......",
"..    ++  ++@@  ++@@@@++++......",
"  ..      ++++  ++++++@@@@++....",
"  ..      ++++  ++++++@@@@++....",
"  ....++  ++++    @@@@@@@@++....",
"  ....++  ++++    @@@@@@@@++....",
"  ..  ++  ++  @@++@@@@@@@@++....",
"  ..  ++  ++  @@++@@@@@@@@++....",
"..    ++    ++@@++@@@@@@++......",
"..    ++    ++@@++@@@@@@++......",
"..  ..    ++++++++++++++++......",
"..  ..    ++++++++++++++++......",
"  ..    ++  ++++@@@@@@@@++......",
"  ..    ++  ++++@@@@@@@@++......",
"  ..    ++      @@@@@@@@++......",
"  ..    ++      @@@@@@@@++......",
"..  ..  ++  @@@@++@@@@++........",
"..  ..  ++  @@@@++@@@@++........",
"..  ....  ++++@@++++++++........",
"..  ....  ++++@@++++++++........",
"  ..  ++  ++++  ++@@@@++........",
"  ..  ++  ++++  ++@@@@++........",
"..    ++++  ++  @@@@@@@@++......",
"..    ++++  ++  @@@@@@@@++......",
"  ..            @@@@@@@@++......",
"  ..            @@@@@@@@++......",
"  ....++++++++@@++@@@@@@++......",
"  ....++++++++@@++@@@@@@++......"};
