/* XPM */
static char * wall_top_xpm[] = {
"32 32 5 1",
" 	c #584422",
".	c #78A46A",
"+	c #D4D29B",
"@	c #5E8549",
"#	c #FFFFFF",
"                                ",
"                                ",
"                                ",
"                                ",
"      ......                    ",
"      ......                    ",
"......++++++........      ......",
"......++++++........      ......",
"++++..++++++++..++++......++++++",
"++++..++++++++..++++......++++++",
"++++++..++++++..++++++..++++++++",
"++++++..++++++..++++++..++++++++",
"++++++..++++++..++++++..++++++++",
"++++++..++++++..++++++..++++++++",
"........@@......++++......++++..",
"........@@......++++......++++..",
"++..@@@@@@++++....@@++++@@@@@@++",
"++..@@@@@@++++....@@++++@@@@@@++",
"..@@++....@@......@@++......@@..",
"..@@++....@@......@@++......@@..",
"..@@........@@..@@@@@@....@@@@..",
"..@@........@@..@@@@@@....@@@@..",
"..@@@@@@@@@@@@@@......@@@@..@@..",
"..@@@@@@@@@@@@@@......@@@@..@@..",
"  ....@@......@@@@@@@@  ....@@..",
"  ....@@......@@@@@@@@  ....@@..",
"@@@@@@@@  @@@@  @@@@    @@@@@@  ",
"@@@@@@@@  @@@@  @@@@    @@@@@@  ",
"  @@@@      @@@@    @@@@  @@    ",
"  @@@@      @@@@    @@@@  @@    ",
"@@    @@@@@@    @@@@    @@  @@@@",
"@@    @@@@@@    @@@@    @@  @@@@"};
