/* XPM */
static char * obs8_xpm[] = {
"32 32 7 1",
" 	c None",
".	c #000000",
"+	c #584422",
"@	c #D4D29B",
"#	c #78A46A",
"$	c #5E8549",
"%	c #FFFFFF",
"        ++++++++++++++          ",
"        ++++++++++++++          ",
"      ++@@@@@@##@@####++        ",
"      ++@@@@@@##@@####++        ",
"      ++@@##############++      ",
"      ++@@##############++      ",
"    ++@@@@##############++      ",
"    ++@@@@##############++      ",
"    ++@@##@@##########$$++      ",
"    ++@@##@@##########$$++      ",
"  ++@@######$$$$$$$$$$$$$$++    ",
"  ++@@######$$$$$$$$$$$$$$++    ",
"  ++@@@@@@@@$$$$$$$$$$$$$$++    ",
"  ++@@@@@@@@$$$$$$$$$$$$$$++    ",
"  ++@@########++$$$$$$@@@@@@++  ",
"  ++@@########++$$$$$$@@@@@@++  ",
"++@@@@##########++++@@######@@++",
"++@@@@##########++++@@######@@++",
"++@@##@@########++@@##########++",
"++@@##@@########++@@##########++",
"++@@##########$$++@@##########++",
"++@@##########$$++@@##########++",
"++@@####$$$$$$$$$$@@##@@####$$++",
"++@@####$$$$$$$$$$@@##@@####$$++",
"++$$$$$$$$$$$$$$@@####$$$$$$$$++",
"++$$$$$$$$$$$$$$@@####$$$$$$$$++",
"  ++++$$$$$$$$++@@$$$$$$$$$$++  ",
"  ++++$$$$$$$$++@@$$$$$$$$$$++  ",
"      ++++++++  ++$$$$$$$$++    ",
"      ++++++++  ++$$$$$$$$++    ",
"                  ++++++++      ",
"                  ++++++++      "};
